<svg width="520" height="196" viewBox="0 0 520 196" fill="none" xmlns="http://www.w3.org/2000/svg">
<path d="M125.92 99.52C125.92 94.88 126.747 90.8267 128.4 87.36C130.107 83.8933 132.4 81.2267 135.28 79.36C138.213 77.4933 141.467 76.56 145.04 76.56C148.133 76.56 150.8 77.1733 153.04 78.4C155.28 79.6267 157.013 81.28 158.24 83.36V77.12H173.92V122H158.24V115.76C157.013 117.84 155.253 119.493 152.96 120.72C150.72 121.947 148.08 122.56 145.04 122.56C141.467 122.56 138.213 121.627 135.28 119.76C132.4 117.893 130.107 115.227 128.4 111.76C126.747 108.24 125.92 104.16 125.92 99.52ZM158.24 99.52C158.24 96.64 157.44 94.3733 155.84 92.72C154.293 91.0667 152.373 90.24 150.08 90.24C147.733 90.24 145.787 91.0667 144.24 92.72C142.693 94.32 141.92 96.5867 141.92 99.52C141.92 102.4 142.693 104.693 144.24 106.4C145.787 108.053 147.733 108.88 150.08 108.88C152.373 108.88 154.293 108.053 155.84 106.4C157.44 104.747 158.24 102.453 158.24 99.52ZM228.775 77.12V122H213.015V115.6C211.682 117.627 209.842 119.28 207.495 120.56C205.148 121.787 202.455 122.4 199.415 122.4C194.188 122.4 190.055 120.693 187.015 117.28C184.028 113.813 182.535 109.12 182.535 103.2V77.12H198.135V101.2C198.135 103.76 198.802 105.787 200.135 107.28C201.522 108.72 203.335 109.44 205.575 109.44C207.868 109.44 209.682 108.72 211.015 107.28C212.348 105.787 213.015 103.76 213.015 101.2V77.12H228.775ZM235.139 99.52C235.139 94.88 235.965 90.8267 237.619 87.36C239.325 83.8933 241.645 81.2267 244.579 79.36C247.512 77.4933 250.765 76.56 254.339 76.56C257.219 76.56 259.779 77.1733 262.019 78.4C264.312 79.5733 266.099 81.2 267.379 83.28V62.8H283.139V122H267.379V115.76C266.152 117.84 264.419 119.493 262.179 120.72C259.939 121.947 257.299 122.56 254.259 122.56C250.685 122.56 247.432 121.627 244.499 119.76C241.619 117.893 239.325 115.227 237.619 111.76C235.965 108.24 235.139 104.16 235.139 99.52ZM267.459 99.52C267.459 96.64 266.659 94.3733 265.059 92.72C263.512 91.0667 261.592 90.24 259.299 90.24C256.952 90.24 255.005 91.0667 253.459 92.72C251.912 94.32 251.139 96.5867 251.139 99.52C251.139 102.4 251.912 104.693 253.459 106.4C255.005 108.053 256.952 108.88 259.299 108.88C261.592 108.88 263.512 108.053 265.059 106.4C266.659 104.747 267.459 102.453 267.459 99.52ZM299.994 72.96C297.22 72.96 294.98 72.2133 293.274 70.72C291.62 69.1733 290.794 67.2533 290.794 64.96C290.794 62.6133 291.62 60.6667 293.274 59.12C294.98 57.5733 297.22 56.8 299.994 56.8C302.714 56.8 304.9 57.5733 306.554 59.12C308.26 60.6667 309.114 62.6133 309.114 64.96C309.114 67.2533 308.26 69.1733 306.554 70.72C304.9 72.2133 302.714 72.96 299.994 72.96ZM307.754 77.12V122H292.074V77.12H307.754ZM332.363 83.36C333.59 81.2267 335.323 79.5733 337.563 78.4C339.803 77.1733 342.443 76.56 345.483 76.56C349.056 76.56 352.283 77.4933 355.163 79.36C358.096 81.2267 360.39 83.8933 362.043 87.36C363.75 90.8267 364.603 94.88 364.603 99.52C364.603 104.16 363.75 108.24 362.043 111.76C360.39 115.227 358.096 117.893 355.163 119.76C352.283 121.627 349.056 122.56 345.483 122.56C342.443 122.56 339.803 121.973 337.563 120.8C335.323 119.573 333.59 117.893 332.363 115.76V122H316.683V62.8H332.363V83.36ZM348.683 99.52C348.683 96.5867 347.883 94.32 346.283 92.72C344.736 91.0667 342.816 90.24 340.523 90.24C338.23 90.24 336.283 91.0667 334.683 92.72C333.136 94.3733 332.363 96.64 332.363 99.52C332.363 102.453 333.136 104.747 334.683 106.4C336.283 108.053 338.23 108.88 340.523 108.88C342.816 108.88 344.736 108.053 346.283 106.4C347.883 104.693 348.683 102.4 348.683 99.52ZM391.938 122.56C387.458 122.56 383.431 121.627 379.858 119.76C376.338 117.893 373.565 115.227 371.538 111.76C369.511 108.293 368.498 104.213 368.498 99.52C368.498 94.88 369.511 90.8267 371.538 87.36C373.618 83.8933 376.418 81.2267 379.938 79.36C383.511 77.4933 387.538 76.56 392.018 76.56C396.498 76.56 400.498 77.4933 404.018 79.36C407.591 81.2267 410.391 83.8933 412.418 87.36C414.498 90.8267 415.538 94.88 415.538 99.52C415.538 104.16 414.498 108.24 412.418 111.76C410.391 115.227 407.591 117.893 404.018 119.76C400.445 121.627 396.418 122.56 391.938 122.56ZM391.938 108.96C394.125 108.96 395.938 108.16 397.378 106.56C398.871 104.907 399.618 102.56 399.618 99.52C399.618 96.48 398.871 94.16 397.378 92.56C395.938 90.96 394.151 90.16 392.018 90.16C389.885 90.16 388.098 90.96 386.658 92.56C385.218 94.16 384.498 96.48 384.498 99.52C384.498 102.613 385.191 104.96 386.578 106.56C387.965 108.16 389.751 108.96 391.938 108.96ZM442.797 122.56C438.317 122.56 434.291 121.627 430.717 119.76C427.197 117.893 424.424 115.227 422.397 111.76C420.371 108.293 419.357 104.213 419.357 99.52C419.357 94.88 420.371 90.8267 422.397 87.36C424.477 83.8933 427.277 81.2267 430.797 79.36C434.371 77.4933 438.397 76.56 442.877 76.56C447.357 76.56 451.357 77.4933 454.877 79.36C458.451 81.2267 461.251 83.8933 463.277 87.36C465.357 90.8267 466.397 94.88 466.397 99.52C466.397 104.16 465.357 108.24 463.277 111.76C461.251 115.227 458.451 117.893 454.877 119.76C451.304 121.627 447.277 122.56 442.797 122.56ZM442.797 108.96C444.984 108.96 446.797 108.16 448.237 106.56C449.731 104.907 450.477 102.56 450.477 99.52C450.477 96.48 449.731 94.16 448.237 92.56C446.797 90.96 445.011 90.16 442.877 90.16C440.744 90.16 438.957 90.96 437.517 92.56C436.077 94.16 435.357 96.48 435.357 99.52C435.357 102.613 436.051 104.96 437.437 106.56C438.824 108.16 440.611 108.96 442.797 108.96ZM500.857 122L488.457 103.6V122H472.777V62.8H488.457V94.72L500.857 77.12H519.657L501.977 99.68L519.977 122H500.857Z" fill="url(#paint0_linear_56_910)"/>
<path fill-rule="evenodd" clip-rule="evenodd" d="M59.9737 82.7314C59.9912 83.1521 60 83.575 60 84V114L60 114.012V117V120C60 125.523 64.4772 130 70 130C75.5229 130 80 125.523 80 120V90C80 84.4772 84.4771 80 90 80C95.5229 80 100 84.4772 100 90V120C100 136.569 86.5685 150 70 150C53.4315 150 40 136.569 40 120V117V90V89.9944V84C40 78.4772 35.5228 74 30 74C24.4772 74 20 78.4772 20 84V114C20 119.523 15.5228 124 10 124C4.47715 124 0 119.523 0 114V84C0 83.575 0.00883735 83.1521 0.0263383 82.7314C0.00888048 82.4899 0 82.246 0 82C0 81.0726 0.126253 80.1746 0.36251 79.3224C2.60873 64.9755 15.0226 54 30 54C44.9774 54 57.3913 64.9755 59.6375 79.3224C59.8738 80.1746 60 81.0726 60 82C60 82.246 59.9911 82.4899 59.9737 82.7314ZM29 78C29 77.4477 29.4477 77 30 77C30.5523 77 31 77.4477 31 78V111C31 111.552 30.5523 112 30 112C29.4477 112 29 111.552 29 111V78ZM25 82C24.4477 82 24 82.4477 24 83V116C24 116.552 24.4477 117 25 117C25.5523 117 26 116.552 26 116V83C26 82.4477 25.5523 82 25 82ZM34 83C34 82.4477 34.4477 82 35 82C35.5523 82 36 82.4477 36 83V116C36 116.552 35.5523 117 35 117C34.4477 117 34 116.552 34 116V83ZM70 92C69.4477 92 69 92.4477 69 93V126C69 126.552 69.4477 127 70 127C70.5523 127 71 126.552 71 126V93C71 92.4477 70.5523 92 70 92ZM64 89C64 88.4477 64.4477 88 65 88C65.5523 88 66 88.4477 66 89V122C66 122.552 65.5523 123 65 123C64.4477 123 64 122.552 64 122V89ZM75 88C74.4477 88 74 88.4477 74 89V122C74 122.552 74.4477 123 75 123C75.5523 123 76 122.552 76 122V89C76 88.4477 75.5523 88 75 88Z" fill="url(#paint1_linear_56_910)"/>
<path d="M83.3426 77C79.3491 77 76.9672 72.5493 79.1823 69.2265L89.8398 53.2404C91.8189 50.2717 96.1811 50.2717 98.1603 53.2404L108.818 69.2265C111.033 72.5493 108.651 77 104.657 77L83.3426 77Z" fill="#118A7E"/>
<path d="M76.4607 77C72.4436 77 70.0666 72.5024 72.3296 69.1833L77.8689 61.059C79.8537 58.1479 84.1463 58.1479 86.1311 61.059L91.6704 69.1833C93.9334 72.5024 91.5564 77 87.5393 77L76.4607 77Z" fill="#1F6F78"/>
<defs>
<linearGradient id="paint0_linear_56_910" x1="295.15" y1="94" x2="613" y2="94.0001" gradientUnits="userSpaceOnUse">
<stop stop-color="#1F6F78"/>
<stop offset="1" stop-color="#118A7E"/>
</linearGradient>
<linearGradient id="paint1_linear_56_910" x1="3.72529e-07" y1="102" x2="100" y2="102" gradientUnits="userSpaceOnUse">
<stop stop-color="#1F6F78"/>
<stop offset="1" stop-color="#118A7E"/>
</linearGradient>
</defs>
</svg>
