<svg width="194" height="73" viewBox="0 0 194 73" fill="none" xmlns="http://www.w3.org/2000/svg">
<path d="M46.8988 36.7395C46.8988 35.0114 47.2067 33.5017 47.8225 32.2105C48.4581 30.9194 49.3123 29.9262 50.3849 29.231C51.4775 28.5357 52.6892 28.1881 54.02 28.1881C55.1722 28.1881 56.1653 28.4165 56.9996 28.8734C57.8339 29.3303 58.4795 29.9461 58.9364 30.7208V28.3967H64.7764V45.1122H58.9364V42.7881C58.4795 43.5628 57.824 44.1786 56.9698 44.6354C56.1356 45.0923 55.1523 45.3208 54.02 45.3208C52.6892 45.3208 51.4775 44.9731 50.3849 44.2779C49.3123 43.5827 48.4581 42.5895 47.8225 41.2983C47.2067 39.9873 46.8988 38.4677 46.8988 36.7395ZM58.9364 36.7395C58.9364 35.6669 58.6384 34.8227 58.0425 34.2069C57.4664 33.5911 56.7513 33.2832 55.8972 33.2832C55.0232 33.2832 54.2981 33.5911 53.7221 34.2069C53.146 34.8028 52.858 35.647 52.858 36.7395C52.858 37.8122 53.146 38.6663 53.7221 39.302C54.2981 39.9178 55.0232 40.2257 55.8972 40.2257C56.7513 40.2257 57.4664 39.9178 58.0425 39.302C58.6384 38.6862 58.9364 37.832 58.9364 36.7395ZM85.2071 28.3967V45.1122H79.3373V42.7285C78.8407 43.4833 78.1554 44.0991 77.2813 44.5759C76.4073 45.0327 75.4042 45.2612 74.272 45.2612C72.3253 45.2612 70.7858 44.6255 69.6536 43.3542C68.5412 42.0631 67.985 40.315 67.985 38.1101V28.3967H73.7952V37.3652C73.7952 38.3187 74.0435 39.0735 74.5401 39.6297C75.0566 40.1661 75.732 40.4342 76.5662 40.4342C77.4204 40.4342 78.0958 40.1661 78.5924 39.6297C79.089 39.0735 79.3373 38.3187 79.3373 37.3652V28.3967H85.2071ZM87.5772 36.7395C87.5772 35.0114 87.8851 33.5017 88.5009 32.2105C89.1366 30.9194 90.0006 29.9262 91.0931 29.231C92.1857 28.5357 93.3974 28.1881 94.7283 28.1881C95.8009 28.1881 96.7544 28.4165 97.5887 28.8734C98.4428 29.3104 99.1083 29.9163 99.585 30.691V23.0632H105.455V45.1122H99.585V42.7881C99.1281 43.5628 98.4825 44.1786 97.6483 44.6354C96.814 45.0923 95.8307 45.3208 94.6985 45.3208C93.3676 45.3208 92.1559 44.9731 91.0634 44.2779C89.9907 43.5827 89.1366 42.5895 88.5009 41.2983C87.8851 39.9873 87.5772 38.4677 87.5772 36.7395ZM99.6148 36.7395C99.6148 35.6669 99.3168 34.8227 98.7209 34.2069C98.1449 33.5911 97.4297 33.2832 96.5756 33.2832C95.7016 33.2832 94.9766 33.5911 94.4005 34.2069C93.8244 34.8028 93.5364 35.647 93.5364 36.7395C93.5364 37.8122 93.8244 38.6663 94.4005 39.302C94.9766 39.9178 95.7016 40.2257 96.5756 40.2257C97.4297 40.2257 98.1449 39.9178 98.7209 39.302C99.3168 38.6862 99.6148 37.832 99.6148 36.7395ZM111.732 26.8473C110.699 26.8473 109.865 26.5692 109.23 26.013C108.614 25.4369 108.306 24.7218 108.306 23.8677C108.306 22.9937 108.614 22.2686 109.23 21.6926C109.865 21.1165 110.699 20.8285 111.732 20.8285C112.745 20.8285 113.56 21.1165 114.176 21.6926C114.811 22.2686 115.129 22.9937 115.129 23.8677C115.129 24.7218 114.811 25.4369 114.176 26.013C113.56 26.5692 112.745 26.8473 111.732 26.8473ZM114.623 28.3967V45.1122H108.783V28.3967H114.623ZM123.788 30.7208C124.245 29.9262 124.891 29.3104 125.725 28.8734C126.559 28.4165 127.543 28.1881 128.675 28.1881C130.006 28.1881 131.208 28.5357 132.28 29.231C133.373 29.9262 134.227 30.9194 134.843 32.2105C135.478 33.5017 135.796 35.0114 135.796 36.7395C135.796 38.4677 135.478 39.9873 134.843 41.2983C134.227 42.5895 133.373 43.5827 132.28 44.2779C131.208 44.9731 130.006 45.3208 128.675 45.3208C127.543 45.3208 126.559 45.1023 125.725 44.6652C124.891 44.2084 124.245 43.5827 123.788 42.7881V45.1122H117.948V23.0632H123.788V30.7208ZM129.867 36.7395C129.867 35.647 129.569 34.8028 128.973 34.2069C128.397 33.5911 127.682 33.2832 126.828 33.2832C125.973 33.2832 125.248 33.5911 124.652 34.2069C124.076 34.8227 123.788 35.6669 123.788 36.7395C123.788 37.832 124.076 38.6862 124.652 39.302C125.248 39.9178 125.973 40.2257 126.828 40.2257C127.682 40.2257 128.397 39.9178 128.973 39.302C129.569 38.6663 129.867 37.8122 129.867 36.7395ZM145.977 45.3208C144.308 45.3208 142.809 44.9731 141.478 44.2779C140.167 43.5827 139.134 42.5895 138.379 41.2983C137.624 40.0071 137.247 38.4876 137.247 36.7395C137.247 35.0114 137.624 33.5017 138.379 32.2105C139.154 30.9194 140.197 29.9262 141.508 29.231C142.838 28.5357 144.338 28.1881 146.007 28.1881C147.675 28.1881 149.165 28.5357 150.476 29.231C151.807 29.9262 152.85 30.9194 153.605 32.2105C154.379 33.5017 154.767 35.0114 154.767 36.7395C154.767 38.4677 154.379 39.9873 153.605 41.2983C152.85 42.5895 151.807 43.5827 150.476 44.2779C149.145 44.9731 147.646 45.3208 145.977 45.3208ZM145.977 40.2554C146.791 40.2554 147.467 39.9575 148.003 39.3616C148.559 38.7458 148.837 37.8718 148.837 36.7395C148.837 35.6073 148.559 34.7432 148.003 34.1473C147.467 33.5514 146.801 33.2534 146.007 33.2534C145.212 33.2534 144.547 33.5514 144.01 34.1473C143.474 34.7432 143.206 35.6073 143.206 36.7395C143.206 37.8916 143.464 38.7657 143.981 39.3616C144.497 39.9575 145.163 40.2554 145.977 40.2554ZM164.92 45.3208C163.251 45.3208 161.751 44.9731 160.42 44.2779C159.109 43.5827 158.076 42.5895 157.322 41.2983C156.567 40.0071 156.189 38.4876 156.189 36.7395C156.189 35.0114 156.567 33.5017 157.322 32.2105C158.096 30.9194 159.139 29.9262 160.45 29.231C161.781 28.5357 163.281 28.1881 164.949 28.1881C166.618 28.1881 168.108 28.5357 169.419 29.231C170.75 29.9262 171.792 30.9194 172.547 32.2105C173.322 33.5017 173.709 35.0114 173.709 36.7395C173.709 38.4677 173.322 39.9873 172.547 41.2983C171.792 42.5895 170.75 43.5827 169.419 44.2779C168.088 44.9731 166.588 45.3208 164.92 45.3208ZM164.92 40.2554C165.734 40.2554 166.409 39.9575 166.946 39.3616C167.502 38.7458 167.78 37.8718 167.78 36.7395C167.78 35.6073 167.502 34.7432 166.946 34.1473C166.409 33.5514 165.744 33.2534 164.949 33.2534C164.155 33.2534 163.489 33.5514 162.953 34.1473C162.417 34.7432 162.148 35.6073 162.148 36.7395C162.148 37.8916 162.407 38.7657 162.923 39.3616C163.44 39.9575 164.105 40.2554 164.92 40.2554ZM186.544 45.1122L181.925 38.2591V45.1122H176.085V23.0632H181.925V34.9518L186.544 28.3967H193.546L186.961 36.7991L193.665 45.1122H186.544Z" fill="white"/>
<path fill-rule="evenodd" clip-rule="evenodd" d="M14.9725 31.2857H14.898C14.8979 29.2287 13.2304 27.5612 11.1735 27.5612C9.11652 27.5612 7.44902 29.2287 7.44899 31.2857H7.3745L7.37448 31.2858H7.44898V42.4592C7.44898 44.5162 5.78147 46.1837 3.72449 46.1837C1.66751 46.1837 0 44.5162 0 42.4592V31.2858H0.0745044L0.0744827 31.2857H0C0 31.1274 0.00329056 30.9699 0.009807 30.8132C0.00330662 30.7233 0 30.6325 0 30.5409C0 30.1955 0.0470099 29.8611 0.13498 29.5437C0.971484 24.2001 5.59508 20.1122 11.1735 20.1122C16.7518 20.1122 21.3753 24.2 22.2119 29.5435C22.2999 29.861 22.347 30.1954 22.347 30.5409C22.347 30.6325 22.3436 30.7234 22.3371 30.8134C22.3437 30.97 22.3469 31.1275 22.3469 31.2857H22.2725L22.2725 31.2858H22.347V42.4592L22.3469 42.4693V43.559L22.347 43.5765L22.3469 43.5939V44.6938H22.1765C22.1765 44.6938 22.1765 44.6939 22.1764 44.6939H22.347C22.347 46.7509 24.0145 48.4183 26.0714 48.4183C28.1284 48.4183 29.7959 46.7509 29.7959 44.6939H37.2449C37.2449 50.8648 32.2424 55.8674 26.0714 55.8674C19.9005 55.8674 14.898 50.8648 14.898 44.6939H15.0685C15.0685 44.6939 15.0685 44.6938 15.0685 44.6938H14.898V33.5203L14.898 33.5102V31.2858H14.9725L14.9725 31.2857ZM28.3061 44.6939H29.7959V44.6938H28.3061V33.148C28.3061 32.9423 28.1394 32.7755 27.9337 32.7755C27.728 32.7755 27.5612 32.9423 27.5612 33.148V44.6938H26.4439V34.6378C26.4439 34.4321 26.2771 34.2653 26.0715 34.2653C25.8658 34.2653 25.699 34.4321 25.699 34.6378V44.6938H24.5816V33.1479C24.5816 32.9423 24.4149 32.7755 24.2092 32.7755C24.0035 32.7755 23.8367 32.9423 23.8367 33.1479V44.6938H22.347V44.6939H23.8367V45.4388C23.8367 45.6445 24.0035 45.8112 24.2092 45.8112C24.4149 45.8112 24.5816 45.6445 24.5816 45.4388V44.6939H25.699V46.9286C25.699 47.1343 25.8658 47.3011 26.0715 47.3011C26.2771 47.3011 26.4439 47.1343 26.4439 46.9286V44.6939H27.5612V45.4388C27.5612 45.6445 27.728 45.8113 27.9337 45.8113C28.1394 45.8113 28.3061 45.6445 28.3061 45.4388V44.6939ZM7.44899 31.2857V31.2857H8.9388V43.2041C8.9388 43.4098 9.10555 43.5765 9.31124 43.5765C9.51694 43.5765 9.68369 43.4098 9.68369 43.2041V31.2857H10.801V41.3418C10.801 41.5475 10.9678 41.7143 11.1735 41.7143C11.3792 41.7143 11.5459 41.5475 11.5459 41.3418V31.2857H12.6633V43.2041C12.6633 43.4098 12.83 43.5765 13.0357 43.5765C13.2414 43.5765 13.4082 43.4098 13.4082 43.2041V31.2857H14.898V31.2857H13.4082V30.9133C13.4082 30.7076 13.2414 30.5408 13.0357 30.5408C12.83 30.5408 12.6633 30.7076 12.6633 30.9133V31.2857H11.5459V29.051C11.5459 28.8453 11.3792 28.6786 11.1735 28.6786C10.9678 28.6786 10.801 28.8453 10.801 29.051V31.2857H9.68369V30.9133C9.68369 30.7076 9.51694 30.5408 9.31124 30.5408C9.10555 30.5408 8.9388 30.7076 8.9388 30.9133V31.2857H7.44899ZM37.2449 33.5203C37.2449 31.4633 35.5774 29.7958 33.5204 29.7958C31.4635 29.7958 29.7959 31.4633 29.7959 33.5203V44.6938H37.2449V33.5203Z" fill="white"/>
<path d="M31.0409 28.6786C29.5535 28.6786 28.6663 27.0209 29.4914 25.7834L33.4607 19.8293C34.1978 18.7237 35.8226 18.7237 36.5597 19.8293L40.529 25.7834C41.3541 27.0209 40.4669 28.6786 38.9795 28.6786L31.0409 28.6786Z" fill="white"/>
<path d="M28.4777 28.6786C26.9816 28.6786 26.0962 27.0034 26.9391 25.7673L29.0022 22.7414C29.7414 21.6571 31.3402 21.6571 32.0795 22.7414L34.1426 25.7673C34.9854 27.0034 34.1001 28.6786 32.6039 28.6786L28.4777 28.6786Z" fill="white"/>
</svg>
