<svg width="26" height="26" viewBox="0 0 26 26" fill="none" xmlns="http://www.w3.org/2000/svg">
<path d="M10.1484 3.82031C7.236 3.82031 4.875 6.18131 4.875 9.09375C4.875 12.0062 7.236 14.3672 10.1484 14.3672C13.0609 14.3672 15.4219 12.0062 15.4219 9.09375C15.4219 6.18131 13.0609 3.82031 10.1484 3.82031ZM6.98438 9.09375C6.98438 7.34629 8.40097 5.92969 10.1484 5.92969C11.8959 5.92969 13.3125 7.34629 13.3125 9.09375C13.3125 10.8412 11.8959 12.2578 10.1484 12.2578C8.40097 12.2578 6.98438 10.8412 6.98438 9.09375Z" fill="#353940"/>
<path d="M18.4893 9.32397C18.1926 9.17268 17.8643 9.09381 17.5312 9.09381V6.98444C18.1974 6.98444 18.8541 7.14212 19.4475 7.44469C19.5129 7.47802 19.5773 7.513 19.6406 7.54958C20.1526 7.84515 20.5974 8.24545 20.9456 8.72519C21.3369 9.26432 21.5949 9.88843 21.6986 10.5464C21.8023 11.2045 21.7487 11.8777 21.5422 12.511C21.3356 13.1443 20.9821 13.7197 20.5104 14.1901C20.0388 14.6605 19.4625 15.0126 18.8286 15.2174C18.2646 15.3997 17.6692 15.4609 17.0815 15.3978C17.0087 15.39 16.9361 15.3803 16.8637 15.3687C16.2064 15.2634 15.5833 15.004 15.0455 14.6118L15.0444 14.611L16.2878 12.907C16.5569 13.1034 16.8686 13.2332 17.1975 13.2859C17.5263 13.3386 17.863 13.3126 18.1799 13.2102C18.4968 13.1078 18.785 12.9318 19.0208 12.6966C19.2566 12.4614 19.4334 12.1737 19.5366 11.857C19.6399 11.5404 19.6667 11.2038 19.6149 10.8748C19.563 10.5458 19.434 10.2337 19.2384 9.9642C19.0427 9.69464 18.7861 9.47525 18.4893 9.32397Z" fill="#353940"/>
<path d="M21.748 22.8047C21.748 22.2509 21.6389 21.7026 21.427 21.191C21.2151 20.6794 20.9045 20.2146 20.5129 19.823C20.1214 19.4314 19.6565 19.1208 19.1449 18.9089C18.6333 18.697 18.085 18.5879 17.5312 18.5879V16.4766C18.2506 16.4766 18.9639 16.5992 19.6406 16.8385C19.7456 16.8756 19.8498 16.9155 19.9529 16.9583C20.7207 17.2763 21.4183 17.7424 22.0059 18.33C22.5935 18.9176 23.0597 19.6153 23.3777 20.383C23.4204 20.4862 23.4603 20.5903 23.4975 20.6953C23.7367 21.372 23.8594 22.0853 23.8594 22.8047H21.748Z" fill="#353940"/>
<path d="M17.5312 22.8047H15.4219C15.4219 19.8922 13.0609 17.5312 10.1484 17.5312C7.236 17.5312 4.875 19.8922 4.875 22.8047H2.76562C2.76562 18.7273 6.07102 15.4219 10.1484 15.4219C14.2259 15.4219 17.5312 18.7273 17.5312 22.8047Z" fill="#353940"/>
</svg>
