<svg width="26" height="27" viewBox="0 0 26 27" fill="none" xmlns="http://www.w3.org/2000/svg">
<path d="M13.1875 23.9844C7.36262 23.9844 2.64062 19.2624 2.64062 13.4375C2.64062 7.61262 7.36262 2.89062 13.1875 2.89062C19.0124 2.89062 23.7344 7.61262 23.7344 13.4375C23.728 19.2597 19.0097 23.978 13.1875 23.9844ZM12.1328 5.06539C8.67981 5.50206 5.84927 8.01418 5.00556 11.3909C4.16184 14.7676 5.47811 18.3158 8.3199 20.3253C11.1617 22.3348 14.9458 22.3932 17.8482 20.4723L17.7427 20.5471L17.8418 20.4786L17.9041 20.4354L17.9716 20.3879L17.9884 20.3763L17.9979 20.3689L12.5895 14.9584C12.2956 14.6593 12.1315 14.2565 12.1328 13.8372V5.06539ZM15.1165 14.4922L19.5747 18.9504L19.5821 18.9419L19.5873 18.9356L19.5768 18.9472C20.6648 17.6916 21.355 16.1409 21.5596 14.4922H15.1165ZM14.2422 5.06539V12.3828H21.5596C21.0781 8.55863 18.0664 5.54687 14.2422 5.06539Z" fill="#353940"/>
</svg>
