<svg width="26" height="27" viewBox="0 0 26 27" fill="none" xmlns="http://www.w3.org/2000/svg">
<g id="icon">
<path id="coolicon" d="M21.625 23.1172H4.75C4.16751 23.1172 3.69531 22.645 3.69531 22.0625V14.3633C3.69531 14.0594 3.82643 13.7704 4.05496 13.5702L5.80469 12.043V5.1875C5.80469 4.60501 6.27689 4.13281 6.85938 4.13281H21.625C22.2075 4.13281 22.6797 4.60501 22.6797 5.1875V22.0625C22.6797 22.645 22.2075 23.1172 21.625 23.1172ZM10.0234 8.69855C10.2788 8.69885 10.5254 8.79179 10.7174 8.96012L15.9909 13.5744C16.2187 13.7734 16.35 14.0607 16.3516 14.3633V21.0078H20.5703V6.24219H7.91406V10.1973L9.3284 8.95906C9.52086 8.79088 9.76785 8.6983 10.0234 8.69855ZM8.96875 17.8438H11.0781V21.0078H14.2422V14.8453L10.0234 11.1539L5.80469 14.8453V21.0078H8.96875V17.8438Z" fill="#353940"/>
</g>
</svg>
