<svg width="22" height="20" viewBox="0 0 22 20" fill="none" xmlns="http://www.w3.org/2000/svg">
<g id="search">
<path id="Vector" d="M19.1962 19.6966L14.9076 15.4079C14.2333 15.9923 13.4466 16.4474 12.5475 16.7734C11.6484 17.0993 10.6932 17.2622 9.6817 17.2622C7.2542 17.2622 5.19757 16.4193 3.5118 14.7336C1.82604 13.0478 0.983154 11.0137 0.983154 8.63111C0.983154 6.24857 1.82604 4.21441 3.5118 2.52865C5.19757 0.842882 7.24296 0 9.64798 0C12.0305 0 14.0591 0.842882 15.7336 2.52865C17.4081 4.21441 18.2454 6.24857 18.2454 8.63111C18.2454 9.59762 18.088 10.5304 17.7734 11.4295C17.4587 12.3286 16.9867 13.1714 16.3573 13.9581L20.7134 18.2468C20.9157 18.4266 21.0169 18.657 21.0169 18.938C21.0169 19.2189 20.9045 19.4718 20.6797 19.6966C20.4774 19.8989 20.2302 20 19.938 20C19.6458 20 19.3985 19.8989 19.1962 19.6966ZM9.64798 15.2393C11.4686 15.2393 13.0195 14.5931 14.3007 13.3007C15.5819 12.0083 16.2225 10.4517 16.2225 8.63111C16.2225 6.81049 15.5819 5.25397 14.3007 3.96155C13.0195 2.66913 11.4686 2.02292 9.64798 2.02292C7.80488 2.02292 6.23712 2.66913 4.9447 3.96155C3.65228 5.25397 3.00607 6.81049 3.00607 8.63111C3.00607 10.4517 3.65228 12.0083 4.9447 13.3007C6.23712 14.5931 7.80488 15.2393 9.64798 15.2393Z" fill="white"/>
</g>
</svg>
